<?xml version="1.0" encoding="utf-8"?>
<!-- Generator: Adobe Illustrator 24.3.0, SVG Export Plug-In . SVG Version: 6.00 Build 0)  -->
<svg version="1.1" xmlns="http://www.w3.org/2000/svg" xmlns:xlink="http://www.w3.org/1999/xlink" x="0px" y="0px"
	 viewBox="0 0 35 35" style="enable-background:new 0 0 35 35;" xml:space="preserve">
<style type="text/css">
	.st0{fill:#FFFFFF;}
	.st1{fill:#24B1FF;}
</style>
<g id="credit_1_">
	<g id="credit">
		<g>
			<g>
				<path d="M13.6,40.1v-1.9h0.8h0.1c0.2,0,0.4,0,0.4,0.1c0.1,0.1,0.1,0.2,0.1,0.5c0,0.2,0,0.4-0.1,0.5c-0.1,0.1-0.2,0.1-0.5,0.1
					l-0.1,0h-0.6v0.8H13.6z M13.8,39.1h0.5c0.2,0,0.4,0,0.4-0.1c0.1,0,0.1-0.1,0.1-0.3c0-0.2,0-0.3-0.1-0.4c0,0-0.1-0.1-0.3-0.1
					l-0.1,0h-0.6V39.1z"/>
				<path d="M15.5,38.2v1.9h-0.2v-1.9H15.5z"/>
				<path d="M17.3,38.2l-0.6,0.9l0.7,1h-0.3l-0.4-0.7l-0.1-0.1c0,0,0,0,0-0.1l0-0.1h0l0,0.1c0,0,0,0,0,0.1l-0.1,0.1l-0.5,0.7h-0.3
					l0.7-1l-0.6-0.9H16l0.4,0.6l0.1,0.1c0,0,0,0,0,0l0,0h0l0,0c0,0,0,0,0,0l0.1-0.1l0.4-0.6L17.3,38.2L17.3,38.2z"/>
				<g>
					<path d="M19,39.1c-0.1-0.1-0.3-0.1-0.6-0.1c-0.3,0-0.4,0-0.4-0.1c0,0-0.1,0-0.1-0.2c0-0.1,0-0.2,0.1-0.2c0,0,0.1-0.1,0.4-0.1
						c0.2,0,0.3,0,0.3,0.1c0,0,0.1,0.1,0.1,0.3v0.1h0.3v-0.1c0-0.2-0.1-0.4-0.2-0.5c-0.1-0.1-0.3-0.1-0.6-0.1c-0.3,0-0.5,0-0.6,0.1
						c-0.1,0.1-0.2,0.2-0.2,0.5c0,0.3,0.2,0.5,0.5,0.6l0.4,0c0.1,0,0.2,0,0.2,0.1c0,0,0,0.1,0,0.2c0,0.2,0,0.3-0.1,0.3
						c0,0-0.1,0.1-0.4,0.1c-0.3,0-0.4,0-0.4-0.1c0,0-0.1-0.1-0.1-0.3v-0.1h-0.3l0,0.1c0,0.2,0.1,0.4,0.2,0.5
						c0.1,0.1,0.3,0.1,0.6,0.1c0.3,0,0.5,0,0.7-0.1c0.1-0.1,0.2-0.2,0.2-0.5C19.1,39.3,19.1,39.1,19,39.1z"/>
					<polygon points="19.2,40.1 20.5,40.1 20.5,39.8 19.5,39.8 19.5,39.2 20.5,39.2 20.5,38.9 19.5,38.9 19.5,38.4 20.5,38.4 
						20.5,38.1 19.2,38.1 					"/>
					<path d="M22,39.6c0,0.1,0,0.2-0.1,0.3c0,0-0.1,0.1-0.4,0.1c-0.3,0-0.4-0.1-0.4-0.1c0-0.1-0.1-0.3-0.1-0.9
						c0-0.3,0.1-0.4,0.1-0.4c0,0,0.1-0.1,0.5-0.1c0.2,0,0.3,0,0.3,0.1c0,0,0.1,0.1,0.1,0.3l0,0.1h0.3l0-0.1c0-0.2,0-0.4-0.1-0.5
						c-0.1-0.1-0.3-0.1-0.5-0.1c-0.4,0-0.6,0-0.7,0.1c-0.1,0.1-0.2,0.2-0.2,0.3c0,0.1,0,0.3,0,0.6c0,0.4,0,0.7,0.1,0.8
						c0.1,0.1,0.3,0.2,0.7,0.2c0.4,0,0.6,0,0.7-0.1c0.1-0.1,0.2-0.3,0.2-0.5v-0.1H22L22,39.6z"/>
					<polygon points="23.8,38.1 22.3,38.1 22.3,38.4 22.9,38.4 22.9,40.1 23.2,40.1 23.2,38.4 23.8,38.4 					"/>
					<path d="M24.7,38.1c-0.3,0-0.6,0-0.7,0.2c-0.1,0.1-0.2,0.3-0.2,0.6l0,0.3c0,0.5,0,0.7,0.1,0.9c0.1,0.1,0.3,0.2,0.7,0.2
						c0.4,0,0.6-0.1,0.7-0.2c0.1-0.1,0.1-0.4,0.1-0.9c0-0.4,0-0.7-0.1-0.8C25.3,38.1,25.1,38.1,24.7,38.1z M24.7,38.4
						c0.3,0,0.4,0,0.5,0.1c0,0,0.1,0.1,0.1,0.4l0,0.3c0,0.5,0,0.6-0.1,0.7c0,0-0.1,0.1-0.5,0.1s-0.5-0.1-0.5-0.1
						c0,0-0.1-0.1-0.1-0.7c0-0.5,0-0.6,0.1-0.7C24.2,38.4,24.3,38.4,24.7,38.4z"/>
					<path d="M27.1,39.2c0.1,0,0.1-0.1,0.1-0.1c0.1-0.1,0.1-0.2,0.1-0.4c0-0.2,0-0.4-0.1-0.5c-0.1-0.1-0.3-0.1-0.5-0.1h-1v2H26v-0.8
						h0.7c0.1,0,0.2,0,0.2,0.3v0.5h0.3v-0.5C27.3,39.4,27.2,39.3,27.1,39.2z M27,38.8c0,0.1,0,0.2-0.1,0.2c0,0-0.1,0.1-0.3,0.1H26
						v-0.7h0.6c0.2,0,0.2,0,0.2,0.1C26.9,38.5,27,38.6,27,38.8z"/>
				</g>
			</g>
			<g>
				<polygon class="st0" points="11.3,39.5 10.1,40.8 9.2,39.9 9,40.2 10.1,41.3 11.7,39.6 11.5,39.3 				"/>
				<polygon class="st0" points="10.1,38.4 10.6,39 10.2,39.4 9.7,39 9.5,39.3 9.5,39.3 9.5,39.3 9.5,39.3 10.2,40 10.9,39.2 
					11.1,39 10,37.9 8.4,39.6 8.6,39.9 8.7,39.8 8.7,39.8 8.8,39.7 8.8,39.7 8.9,39.6 8.9,39.6 				"/>
				<path class="st1" d="M12.5,38.7c-0.5-1.2-1.9-1.9-3.1-1.4c-1.3,0.5-1.9,1.9-1.5,3.1c0.5,1.2,1.9,1.9,3.1,1.4
					C12.3,41.4,12.9,40,12.5,38.7z M8.8,39.7L8.8,39.7L8.8,39.7l-0.1,0.1l-0.1,0.1l-0.3-0.3l1.7-1.7l1.1,1.1l-0.2,0.2L10.2,40
					l-0.7-0.7l0,0l0,0l0,0L9.7,39l0.4,0.4l0.4-0.4l-0.6-0.5L8.8,39.7L8.8,39.7L8.8,39.7z M10.1,41.3L9,40.2l0.3-0.3l0.8,0.8l1.2-1.2
					l0.2-0.2l0.3,0.3L10.1,41.3z"/>
			</g>
			<g>
				<path d="M23,41.4v0.2h-0.2v-0.2H23z"/>
				<path d="M24,41.3h0.2l0,0.1c0,0.2-0.2,0.4-0.5,0.4c-0.2,0-0.3,0-0.4-0.1c-0.1-0.1-0.1-0.2-0.1-0.5c0-0.2,0-0.4,0.1-0.4
					c0.1-0.1,0.2-0.1,0.4-0.1c0.2,0,0.3,0,0.4,0.1c0.1,0.1,0.1,0.2,0.1,0.3H24v0c0-0.1,0-0.1-0.1-0.2c0,0-0.1,0-0.3,0
					c-0.1,0-0.2,0-0.2,0.1c0,0.1-0.1,0.2-0.1,0.4c0,0.2,0,0.3,0.1,0.4c0,0.1,0.1,0.1,0.3,0.1c0.1,0,0.2,0,0.2,0
					C24,41.5,24,41.4,24,41.3z"/>
				<path d="M24.9,40.5c0.2,0,0.3,0,0.4,0.1c0.1,0.1,0.1,0.2,0.1,0.5c0,0.2,0,0.4-0.1,0.5c-0.1,0.1-0.2,0.1-0.4,0.1
					c-0.2,0-0.3,0-0.4-0.1c-0.1-0.1-0.1-0.2-0.1-0.5c0-0.2,0-0.4,0.1-0.5C24.6,40.6,24.7,40.5,24.9,40.5z M24.9,40.7
					c-0.1,0-0.2,0-0.3,0.1c0,0-0.1,0.2-0.1,0.4c0,0.2,0,0.3,0.1,0.4c0,0,0.1,0.1,0.3,0.1c0.1,0,0.2,0,0.3-0.1c0,0,0.1-0.2,0.1-0.4
					c0-0.2,0-0.3-0.1-0.4C25.1,40.7,25,40.7,24.9,40.7z"/>
				<path d="M25.6,40.5h0.2l0,0.2l0,0c0.1-0.1,0.2-0.2,0.4-0.2c0.2,0,0.3,0.1,0.3,0.2h0c0.1-0.1,0.2-0.2,0.4-0.2
					c0.3,0,0.4,0.1,0.4,0.4v0.7h-0.2v-0.7c0-0.1,0-0.2-0.1-0.2s-0.1-0.1-0.2-0.1c-0.1,0-0.2,0-0.3,0.1c0,0-0.1,0.1-0.1,0.3v0.6h-0.2
					v-0.7l0-0.1c0-0.1-0.1-0.2-0.2-0.2c-0.2,0-0.3,0.1-0.3,0.4v0.6h-0.2V40.5z"/>
			</g>
		</g>
	</g>
</g>
<g id="user_circle">
	<path d="M17.5,4.2C9,4.2,2.1,11.1,2.1,19.6C2.1,24,4,28,7,30.8c0.8-3.6,3.5-6.6,6.9-7.8c-1.5-1.1-2.4-2.8-2.4-4.8c0-3.3,2.7-6,6-6
		c3.3,0,6,2.7,6,6c0,2-1,3.7-2.4,4.8c3.5,1.2,6.1,4.2,6.9,7.8c3-2.8,4.9-6.8,4.9-11.3C32.9,11.1,26,4.2,17.5,4.2z"/>
</g>
</svg>
